<svg width="80" height="80" viewBox="0 0 80 80" fill="none" xmlns="http://www.w3.org/2000/svg">
<g clip-path="url(#clip0_31_1989)">
<path d="M63.0665 20.0327C62.3999 18.066 60.5332 16.666 58.3332 16.666H21.6665C19.4665 16.666 17.6332 18.066 16.9332 20.0327L9.99988 39.9993V66.666C9.99988 68.4993 11.4999 69.9993 13.3332 69.9993H16.6665C18.4999 69.9993 19.9999 68.4993 19.9999 66.666V63.3327H59.9999V66.666C59.9999 68.4993 61.4999 69.9993 63.3332 69.9993H66.6665C68.4999 69.9993 69.9999 68.4993 69.9999 66.666V39.9993L63.0665 20.0327ZM21.6665 53.3327C18.8999 53.3327 16.6665 51.0993 16.6665 48.3327C16.6665 45.566 18.8999 43.3327 21.6665 43.3327C24.4332 43.3327 26.6665 45.566 26.6665 48.3327C26.6665 51.0993 24.4332 53.3327 21.6665 53.3327ZM58.3332 53.3327C55.5665 53.3327 53.3332 51.0993 53.3332 48.3327C53.3332 45.566 55.5665 43.3327 58.3332 43.3327C61.0999 43.3327 63.3332 45.566 63.3332 48.3327C63.3332 51.0993 61.0999 53.3327 58.3332 53.3327ZM16.6665 36.666L21.6665 21.666H58.3332L63.3332 36.666H16.6665Z" fill="#BF9D7D"/>
</g>
<defs>
<clipPath id="clip0_31_1989">
<rect width="80" height="80" fill="white"/>
</clipPath>
</defs>
</svg>
