<svg width="80" height="80" viewBox="0 0 80 80" fill="none" xmlns="http://www.w3.org/2000/svg">
<path d="M53.3332 20L63.3332 33.3333H69.9999C73.6999 33.3333 76.6666 36.3 76.6666 40V50H69.9999C69.9999 52.6522 68.9463 55.1957 67.071 57.0711C65.1956 58.9464 62.6521 60 59.9999 60C57.3477 60 54.8042 58.9464 52.9288 57.0711C51.0535 55.1957 49.9999 52.6522 49.9999 50H29.9999C29.9999 52.6522 28.9463 55.1957 27.071 57.0711C25.1956 58.9464 22.6521 60 19.9999 60C17.3478 60 14.8042 58.9464 12.9289 57.0711C11.0535 55.1957 9.99992 52.6522 9.99992 50H3.33325V40C3.33325 36.3 6.29992 33.3333 9.99992 33.3333L19.9999 20H53.3332ZM34.9999 25H22.4999L16.1999 33.3333H34.9999V25ZM39.9999 25V33.3333H57.1332L50.8332 25H39.9999ZM19.9999 45C18.6738 45 17.4021 45.5268 16.4644 46.4645C15.5267 47.4021 14.9999 48.6739 14.9999 50C14.9999 51.3261 15.5267 52.5978 16.4644 53.5355C17.4021 54.4732 18.6738 55 19.9999 55C21.326 55 22.5978 54.4732 23.5355 53.5355C24.4731 52.5978 24.9999 51.3261 24.9999 50C24.9999 48.6739 24.4731 47.4021 23.5355 46.4645C22.5978 45.5268 21.326 45 19.9999 45ZM59.9999 45C58.6738 45 57.4021 45.5268 56.4644 46.4645C55.5267 47.4021 54.9999 48.6739 54.9999 50C54.9999 51.3261 55.5267 52.5978 56.4644 53.5355C57.4021 54.4732 58.6738 55 59.9999 55C61.326 55 62.5978 54.4732 63.5354 53.5355C64.4731 52.5978 64.9999 51.3261 64.9999 50C64.9999 48.6739 64.4731 47.4021 63.5354 46.4645C62.5978 45.5268 61.326 45 59.9999 45Z" fill="#BF9D7D"/>
</svg>
