<svg width="80" height="80" viewBox="0 0 80 80" fill="none" xmlns="http://www.w3.org/2000/svg">
<g clip-path="url(#clip0_31_1994)">
<path d="M40 6.6665C26.6667 6.6665 13.3334 8.33317 13.3334 19.9998V51.6665C13.3334 58.0998 18.5667 63.3332 25 63.3332L20 68.3332V69.9998H27.4334L34.1 63.3332H46.6667L53.3334 69.9998H60V68.3332L55 63.3332C61.4334 63.3332 66.6667 58.0998 66.6667 51.6665V19.9998C66.6667 8.33317 54.7334 6.6665 40 6.6665ZM25 56.6665C22.2334 56.6665 20 54.4332 20 51.6665C20 48.8998 22.2334 46.6665 25 46.6665C27.7667 46.6665 30 48.8998 30 51.6665C30 54.4332 27.7667 56.6665 25 56.6665ZM36.6667 33.3332H20V19.9998H36.6667V33.3332ZM43.3334 33.3332V19.9998H60V33.3332H43.3334ZM55 56.6665C52.2334 56.6665 50 54.4332 50 51.6665C50 48.8998 52.2334 46.6665 55 46.6665C57.7667 46.6665 60 48.8998 60 51.6665C60 54.4332 57.7667 56.6665 55 56.6665Z" fill="#BF9D7D"/>
</g>
<defs>
<clipPath id="clip0_31_1994">
<rect width="80" height="80" fill="white"/>
</clipPath>
</defs>
</svg>
